{"title":"Grimm Season 1 480p AC3","uid":8949397,"size":10621251749,"categoryP":"video","categoryS":"tv_shows","magnet":"?xt=urn:btih:3635fe321c04b602067ae3d30b867a19945b3534&amp;dn=Grimm+Season+1+480p+AC3&amp;tr=udp%3A%2F%2Ftracker.openbittorrent.com%3A80&amp;tr=udp%3A%2F%2Fopen.demonii.com%3A1337&amp;tr=udp%3A%2F%2Ftracker.coppersurfer.tk%3A6969&amp;tr=udp%3A%2F%2Fexodus.desync.com%3A6969","seeders":0,"leechers":1,"uploader":"datdus","files":32,"time":1379850457,"description":"Converted this for personal use, i don't see any difference with the 720p twice the size.\n\nFormat                                   : Matroska\nFormat version                           : Version 2\nFile size                                : 490 MiB\nDuration                                 : 42mn 57s\nOverall bit rate                         : 1 595 Kbps\nWriting application                      : Lavf51.12.1\nWriting library                          : Lavf51.12.1\n\nVideo\nID                                       : 1\nFormat                                   : MPEG-4 Visual\nFormat profile                           : Simple@L1\nFormat settings, BVOP                    : No\nFormat settings, QPel                    : No\nFormat settings, GMC                     : No warppoints\nFormat settings, Matrix                  : Default (H.263)\nCodec ID                                 : V_MPEG4/ISO/ASP\nCodec ID/Info                            : Advanced Simple Profile\nDuration                                 : 42mn 57s\nBit rate                                 : 1 372 Kbps\nWidth                                    : 856 pixels\nHeight                                   : 480 pixels\nDisplay aspect ratio                     : 16:9\nFrame rate mode                          : Constant\nFrame rate                               : 23.976 fps\nColor space                              : YUV\nChroma subsampling                       : 4:2:0\nBit depth                                : 8 bits\nScan type                                : Progressive\nCompression mode                         : Lossy\nBits/(Pixel*Frame)                       : 0.139\nStream size                              : 421 MiB (86%)\nWriting library                          : Lavc51.40.4\nLanguage                                 : English\nDefault                                  : Yes\nForced                                   : No\n\nAudio\nID                                       : 2\nFormat                                   : AC-3\nFormat/Info                              : Audio Coding 3\nMode extension                           : CM (complete main)\nFormat settings, Endianness              : Big\nCodec ID                                 : A_AC3\nDuration                                 : 42mn 57s\nBit rate mode                            : Constant\nBit rate                                 : 192 Kbps\nChannel count                            : 2 channels\nChannel positions                        : Front: L R\nSampling rate                            : 44.1 KHz\nBit depth                                : 16 bits\nCompression mode                         : Lossy\nStream size                              : 59.0 MiB (12%)\nLanguage                                 : English\nDefault                                  : Yes\nForced                                   : No\n","torrent":{"xt":"urn:btih:3635fe321c04b602067ae3d30b867a19945b3534","amp;dn":"Grimm+Season+1+480p+AC3","amp;tr":["udp%3A%2F%2Ftracker.openbittorrent.com%3A80","udp%3A%2F%2Fopen.demonii.com%3A1337","udp%3A%2F%2Ftracker.coppersurfer.tk%3A6969","udp%3A%2F%2Fexodus.desync.com%3A6969"],"infoHash":"3635fe321c04b602067ae3d30b867a19945b3534","infoHashBuffer":{"type":"Buffer","data":[54,53,254,50,28,4,182,2,6,122,227,211,11,134,122,25,148,91,53,52]},"announce":[],"urlList":[]}}